<?xml version="1.0" encoding="UTF-8"?>
<svg id="Layer_2" data-name="Layer 2" xmlns="http://www.w3.org/2000/svg" viewBox="0 0 32 32">
  <defs>
    <style>
      .cls-1 {
        fill: none;
      }

      .cls-2 {
        fill: #000835;
      }
    </style>
  </defs>
  <g id="Layer_1-2" data-name="Layer 1">
    <g>
      <rect class="cls-1" width="32" height="32"/>
      <g>
        <path class="cls-1" d="m14.71,13.3c.05-.29-.05-.58-.26-.79l-1.04-1.02,1.44-.21c.29-.04.54-.22.67-.49l.65-1.31.65,1.31c.13.26.38.44.67.49l1.44.21-1.04,1.02c-.21.21-.31.5-.25.79l.25,1.44-1.29-.68c-.26-.14-.57-.14-.83,0l-1.29.68.25-1.44Z"/>
        <path class="cls-1" d="m16,18.15c3.31,0,6-2.69,6-6,0-3.31-2.69-6-6-6s-6,2.69-6,6c0,3.31,2.69,6,6,6Zm.17-3.18l-1.44.76c-.13.07-.27.1-.41.1-.18,0-.37-.06-.52-.17-.28-.2-.41-.53-.35-.87l.27-1.6-1.16-1.13c-.24-.24-.33-.59-.23-.91s.38-.56.72-.61l1.61-.23.72-1.46h0c.15-.31.46-.5.8-.5h0c.34,0,.65.19.8.5l.72,1.46,1.61.23c.34.05.61.28.72.61s.02.67-.23.91l-1.16,1.13.27,1.6c.06.34-.08.67-.35.87-.28.2-.64.23-.94.07l-1.44-.76Z"/>
        <path class="cls-1" d="m16,19.15c1.2,0,2.33-.3,3.32-.84l1.96,6.27-2.85-1.63-1.18,2.36-1.94-6.2c.23.02.46.04.7.04Z"/>
        <path class="cls-1" d="m14.19,18.91l1.31,4.19-.62,2.2-1.17-2.33-2.85,1.63,1.94-6.22c.44.23.9.4,1.39.54Z"/>
        <path class="cls-2" d="m14.73,15.73l1.44-.76,1.44.76c.3.16.66.13.94-.07.28-.2.41-.53.35-.87l-.27-1.6,1.16-1.13c.24-.24.33-.59.23-.91s-.38-.56-.72-.61l-1.61-.23-.72-1.46c-.15-.31-.46-.5-.8-.5h0c-.34,0-.65.19-.8.5h0s-.72,1.46-.72,1.46l-1.61.23c-.34.05-.61.28-.72.61s-.02.67.23.91l1.16,1.13-.27,1.6c-.06.34.08.67.35.87.16.11.34.17.52.17.14,0,.28-.03.41-.1Zm1.03-1.67l-1.29.68.25-1.44c.05-.29-.05-.58-.26-.79l-1.04-1.02,1.44-.21c.29-.04.54-.22.67-.49l.65-1.31.65,1.31c.13.26.38.44.67.49l1.44.21-1.04,1.02c-.21.21-.31.5-.25.79l.25,1.44-1.29-.68c-.26-.14-.57-.14-.83,0Z"/>
        <path class="cls-2" d="m9.66,25.05c-.08.27,0,.56.23.74.22.18.52.2.77.06l2.63-1.5,1.06,2.12c.12.23.35.38.61.38.02,0,.04,0,.06,0,.28-.02.51-.21.6-.48l.43-1.52.47,1.52c.08.27.32.46.6.48.02,0,.04,0,.06,0,.26,0,.49-.14.61-.38l1.06-2.12,2.63,1.5c.25.14.55.12.77-.06.22-.18.31-.47.23-.74l-2.28-7.3c1.7-1.28,2.81-3.31,2.81-5.6,0-3.86-3.14-7-7-7s-7,3.14-7,7c0,2.34,1.16,4.4,2.92,5.68l-2.26,7.22Zm6.34-6.9c-3.31,0-6-2.69-6-6,0-3.31,2.69-6,6-6s6,2.69,6,6c0,3.31-2.69,6-6,6Zm-.7.96c.23.02.46.04.7.04,1.2,0,2.33-.3,3.32-.84l1.96,6.27-2.85-1.63-1.18,2.36-1.94-6.2Zm-4.44,5.47l1.94-6.22c.44.23.9.4,1.39.54l1.31,4.19-.62,2.2-1.17-2.33-2.85,1.63Z"/>
      </g>
    </g>
  </g>
</svg>