<?xml version="1.0" encoding="UTF-8"?>
<svg id="Layer_2" data-name="Layer 2" xmlns="http://www.w3.org/2000/svg" viewBox="0 0 32 32">
  <defs>
    <style>
      .cls-1 {
        fill: none;
      }

      .cls-2 {
        fill: #000835;
      }
    </style>
  </defs>
  <g id="Layer_1-2" data-name="Layer 1">
    <g>
      <rect class="cls-1" width="32" height="32"/>
      <rect class="cls-1" width="32" height="32"/>
      <g>
        <path class="cls-1" d="m15.67,13.7c-.6.09-.86.3-.86.71s.31.64.8.64c.7,0,1.16-.52,1.16-1.29v-.28c-.14.06-.27.09-.4.11l-.7.11Z"/>
        <polygon class="cls-1" points="8.5 11.25 5.42 13.55 8.5 15.33 8.5 11.25"/>
        <path class="cls-1" d="m22.5,8.53c0-.15-.12-.28-.28-.28h-12.45c-.15,0-.28.12-.28.28v7.38l5.64,3.26c.53.31,1.19.31,1.72,0l5.64-3.26v-7.38Zm-4.57,6.98h-.59c-.38,0-.58-.19-.58-.49v-.1c-.35.51-.85.69-1.35.69-.81,0-1.34-.47-1.34-1.18,0-.91.81-1.14,1.38-1.21l.93-.13c.31-.05.38-.21.38-.39,0-.39-.27-.68-.86-.68-.55,0-.88.28-.93.77h-.75c.08-.84.72-1.37,1.7-1.37,1.03,0,1.56.51,1.56,1.52v1.82c0,.08.06.15.16.15h.28c.54,0,.92-.77.92-1.87,0-1.56-1.24-2.72-2.89-2.72-1.84,0-3.18,1.34-3.18,3.17,0,2.02,1.14,3.27,2.97,3.27h1.3v.57h-1.39c-2.13,0-3.54-1.52-3.54-3.81,0-2.15,1.64-3.76,3.85-3.76,2.07,0,3.54,1.37,3.54,3.31,0,1.45-.64,2.46-1.57,2.46Z"/>
        <path class="cls-1" d="m17.47,6.67c-.89-.57-2.05-.57-2.95,0l-.87.58h4.69l-.88-.58Z"/>
        <polygon class="cls-1" points="23.5 15.33 26.58 13.55 23.5 11.25 23.5 15.33"/>
        <path class="cls-2" d="m27.86,13.75s.04-.09.04-.15c0-.21-.1-.41-.25-.51l-4.15-3.1v-1.47c0-.7-.57-1.28-1.28-1.28h-2.07l-2.14-1.42c-1.22-.78-2.81-.78-4.04,0l-2.13,1.42h-2.07c-.7,0-1.28.57-1.28,1.28v1.47l-4.11,3.07c-.18.12-.29.31-.28.53,0,.05.03.1.04.15h-.14v10.5h1v-9.79l9.64,5.58c.42.24.89.37,1.36.37s.94-.12,1.36-.37l9.64-5.58v11.29H4v1h24v-13h-.14Zm-13.33-7.08c.9-.57,2.06-.57,2.95,0l.88.58h-4.69l.87-.58Zm-6.02,4.58v4.08l-3.08-1.78,3.08-2.3Zm8.36,7.93c-.53.31-1.19.31-1.72,0l-5.64-3.26v-7.38c0-.15.12-.28.28-.28h12.45c.15,0,.28.12.28.28v7.38l-5.64,3.26Zm6.64-3.84v-4.08l3.08,2.3-3.08,1.78Z"/>
        <path class="cls-2" d="m15.96,9.75c-2.21,0-3.85,1.61-3.85,3.76,0,2.29,1.41,3.81,3.54,3.81h1.39v-.57h-1.3c-1.83,0-2.97-1.25-2.97-3.27,0-1.83,1.34-3.17,3.18-3.17,1.65,0,2.89,1.16,2.89,2.72,0,1.1-.38,1.87-.92,1.87h-.28c-.09,0-.16-.06-.16-.15v-1.82c0-1.01-.52-1.52-1.56-1.52-.98,0-1.62.53-1.7,1.37h.75c.06-.49.38-.77.93-.77.6,0,.86.28.86.68,0,.18-.06.35-.38.39l-.93.13c-.58.07-1.38.3-1.38,1.21,0,.71.53,1.18,1.34,1.18.49,0,1-.17,1.35-.69v.1c0,.29.2.49.58.49h.59c.93,0,1.57-1.01,1.57-2.46,0-1.93-1.47-3.31-3.54-3.31Zm.81,4c0,.77-.47,1.29-1.16,1.29-.49,0-.8-.24-.8-.64s.26-.61.86-.71l.7-.11c.14-.02.27-.05.4-.11v.28Z"/>
      </g>
    </g>
  </g>
</svg>