<?xml version="1.0" encoding="UTF-8"?>
<svg id="Layer_2" data-name="Layer 2" xmlns="http://www.w3.org/2000/svg" viewBox="0 0 32 32">
  <defs>
    <style>
      .cls-1 {
        fill: none;
      }

      .cls-2 {
        fill: #000835;
      }
    </style>
  </defs>
  <g id="Layer_1-2" data-name="Layer 1">
    <g>
      <rect class="cls-1" width="32" height="32"/>
      <rect class="cls-1" width="32" height="32"/>
      <g>
        <polygon class="cls-2" points="23.93 8.07 19.64 7.75 19.57 8.71 22.39 8.93 14.75 16.57 15.43 17.25 23.07 9.61 23.29 12.43 24.25 12.36 23.93 8.07"/>
        <path class="cls-2" d="m22.25,22.88c0,.48-.39.88-.88.88h-12.25c-.48,0-.88-.39-.88-.88v-12.25c0-.48.39-.88.88-.88h5.62v-1h-5.62c-1.03,0-1.88.84-1.88,1.88v12.25c0,1.03.84,1.88,1.88,1.88h12.25c1.03,0,1.88-.84,1.88-1.88v-5.62h-1v5.62Z"/>
      </g>
    </g>
  </g>
</svg>