<?xml version="1.0" encoding="UTF-8"?>
<svg id="Layer_2" data-name="Layer 2" xmlns="http://www.w3.org/2000/svg" viewBox="0 0 32 32">
  <defs>
    <style>
      .cls-1 {
        fill: none;
      }

      .cls-2 {
        fill: #000835;
      }
    </style>
  </defs>
  <g id="Layer_1-2" data-name="Layer 1">
    <g>
      <rect class="cls-1" width="32" height="32"/>
      <g>
        <path class="cls-2" d="m24.89,25.32H7.11c-.58,0-1.11-.3-1.4-.81-.29-.51-.29-1.11,0-1.62L14.6,7.49c.29-.51.82-.81,1.4-.81s1.11.3,1.4.81l8.89,15.4c.29.51.29,1.11,0,1.62-.29.51-.82.81-1.4.81ZM16,7.68c-.11,0-.37.03-.54.31l-8.89,15.4c-.16.28-.05.53,0,.62s.21.31.54.31h17.78c.32,0,.48-.22.54-.31s.16-.34,0-.62l-8.89-15.4c-.16-.28-.43-.31-.54-.31Z"/>
        <rect class="cls-2" x="15.5" y="14" width="1" height="6"/>
        <rect class="cls-2" x="15.5" y="21" width="1" height="1"/>
      </g>
    </g>
  </g>
</svg>