<?xml version="1.0" encoding="UTF-8"?>
<svg id="Layer_2" data-name="Layer 2" xmlns="http://www.w3.org/2000/svg" viewBox="0 0 32 32">
  <defs>
    <style>
      .cls-1 {
        fill: none;
      }

      .cls-2 {
        fill: #000835;
      }
    </style>
  </defs>
  <g id="Layer_1-2" data-name="Layer 1">
    <g>
      <rect class="cls-1" width="32" height="32"/>
      <g>
        <path class="cls-1" d="m13.96,16.45c-.41-.41-1.01-.59-1.42-.66.07.41.24,1.01.66,1.43.41.41.99.59,1.43.66-.07-.41-.25-1.01-.66-1.43Z"/>
        <path class="cls-1" d="m15.71,17.89c.68-.08,1.86-.33,2.66-1.12.8-.8,1.05-1.98,1.12-2.66-.68.08-1.86.33-2.66,1.12-.8.8-1.05,1.98-1.13,2.66Z"/>
        <path class="cls-1" d="m8.45,16.5h-1.12c.25,4.4,3.78,7.92,8.17,8.17v-1.12c-3.78-.25-6.8-3.27-7.05-7.05Z"/>
        <path class="cls-1" d="m15.5,8.45v-1.12c-4.4.25-7.92,3.78-8.17,8.17h1.12c.25-3.78,3.27-6.8,7.05-7.05Z"/>
        <path class="cls-1" d="m16.5,23.55v1.12c4.4-.25,7.92-3.78,8.17-8.17h-1.12c-.25,3.78-3.27,6.8-7.05,7.05Z"/>
        <path class="cls-1" d="m16.5,7.33v1.12c3.78.25,6.8,3.27,7.05,7.05h1.12c-.25-4.4-3.78-7.92-8.17-8.17Z"/>
        <path class="cls-1" d="m22.58,16.01s0,0,0,0,0,0,0,0c0-3.62-2.95-6.57-6.58-6.57s-6.57,2.95-6.57,6.58,2.95,6.58,6.57,6.58,6.57-2.95,6.58-6.57Zm-3.5,1.47c-1.41,1.41-3.63,1.45-3.88,1.45h-.04c-.28,0-1.72-.05-2.67-1.01-1.02-1.02-1.01-2.63-1-2.7,0-.27.22-.49.49-.49.06,0,1.67-.02,2.69,1.01.16.16.29.34.4.52.21-.6.54-1.22,1.06-1.74,1.41-1.41,3.63-1.45,3.9-1.45h0c.28,0,.49.22.5.49,0,.1.02,2.44-1.45,3.91Z"/>
        <path class="cls-2" d="m25.67,15.5c-.25-4.95-4.23-8.92-9.17-9.17v-2.33h-1v2.33c-4.95.25-8.92,4.22-9.17,9.17h-2.33v1h2.33c.25,4.95,4.22,8.92,9.17,9.17v2.33h1v-2.33c4.95-.25,8.92-4.22,9.17-9.17h2.33v-1h-2.33ZM15.5,7.33v1.12c-3.78.25-6.8,3.27-7.05,7.05h-1.12c.25-4.4,3.78-7.92,8.17-8.17Zm0,17.34c-4.4-.25-7.92-3.78-8.17-8.17h1.12c.25,3.78,3.27,6.8,7.05,7.05v1.12Zm.5-2.1c-3.63,0-6.57-2.95-6.57-6.58s2.95-6.58,6.57-6.58,6.57,2.95,6.58,6.57c0,0,0,0,0,0s0,0,0,0c0,3.62-2.95,6.57-6.58,6.57Zm.5,2.1v-1.12c3.78-.25,6.8-3.27,7.05-7.05h1.12c-.25,4.4-3.78,7.92-8.17,8.17Zm7.05-9.17c-.25-3.78-3.27-6.8-7.05-7.05v-1.12c4.4.25,7.92,3.78,8.17,8.17h-1.12Z"/>
        <path class="cls-2" d="m20.02,13.07h0c-.27,0-2.49.04-3.9,1.45-.52.52-.84,1.14-1.06,1.74-.11-.18-.24-.36-.4-.52-1.02-1.02-2.63-1.01-2.69-1.01-.27,0-.49.22-.49.49,0,.07-.01,1.68,1,2.7.96.96,2.4,1.01,2.67,1.01h.04c.25,0,2.47-.04,3.88-1.45,1.47-1.47,1.45-3.81,1.45-3.91,0-.27-.22-.49-.5-.49Zm-7.49,2.72c.41.07,1.01.25,1.42.66s.59,1.02.66,1.43c-.44-.07-1.02-.25-1.43-.66-.41-.41-.59-1.01-.66-1.43Zm5.84.98c-.8.8-1.98,1.05-2.66,1.12.08-.68.33-1.86,1.13-2.66.8-.8,1.98-1.05,2.66-1.12-.08.68-.33,1.86-1.12,2.66Z"/>
      </g>
    </g>
  </g>
</svg>