<?xml version="1.0" encoding="UTF-8"?>
<svg id="Layer_2" data-name="Layer 2" xmlns="http://www.w3.org/2000/svg" viewBox="0 0 32 32">
  <defs>
    <style>
      .cls-1 {
        fill: none;
      }

      .cls-2 {
        fill: #000835;
      }
    </style>
  </defs>
  <g id="Layer_1-2" data-name="Layer 1">
    <g>
      <rect class="cls-1" width="32" height="32"/>
      <g>
        <g>
          <path class="cls-2" d="m26,7.5c0-.83-.67-1.5-1.5-1.5H7.5c-.83,0-1.5.67-1.5,1.5v10.5h1V7.5c0-.28.22-.5.5-.5h17c.28,0,.5.22.5.5v11.5H6v1h20V7.5Z"/>
          <path class="cls-2" d="m26.24,21h-1.08,0s-18.33.01-18.33.01h0s-1.08-.01-1.08-.01l-2,5h24.48l-2-5Zm-19.8,1.01h19.13l1.2,2.99H5.24l1.2-2.99Z"/>
        </g>
        <path class="cls-2" d="m22.21,11.22l-.04-.34-5.96-2.34-.24-.07-5.83,2.29c-.22.09-.36.29-.36.53l.05.4,1.67.65v3.8c0,1.23,3.15,1.36,4.5,1.36s4.5-.13,4.5-1.36v-2.57h-1v2.44c-.32.19-1.53.49-3.5.49s-3.19-.3-3.5-.49v-3.28l3.29,1.29.25.07,5.19-2.04v2.65h1v-3.49h0Zm-6.21,1.81l-4.46-1.75,4.46-1.75,4.46,1.75-4.46,1.75Z"/>
      </g>
    </g>
  </g>
</svg>